{"title":"Adventure.Time.S07E16.Summer.Showers.HDTV.x264-W4F","uid":13168107,"size":41479747,"categoryP":"video","categoryS":"tv_shows","magnet":"?xt=urn:btih:30bb1fa7e72bb969088326e142393ba68fda509c&amp;dn=Adventure.Time.S07E16.Summer.Showers.HDTV.x264-W4F&amp;tr=udp%3A%2F%2Ftracker.leechers-paradise.org%3A6969&amp;tr=udp%3A%2F%2Fzer0day.ch%3A1337&amp;tr=udp%3A%2F%2Fopen.demonii.com%3A1337&amp;tr=udp%3A%2F%2Ftracker.coppersurfer.tk%3A6969&amp;tr=udp%3A%2F%2Fexodus.desync.com%3A6969","seeders":15,"leechers":1,"uploader":"TheRival","files":3,"time":1452218543,"description":"Video\r\nID                                       : 1\r\nFormat                                   : AVC\r\nFormat/Info                              : Advanced Video Codec\r\nFormat profile                           :   \r\nFormat settings, CABAC                   : Yes\r\nFormat settings, ReFrames                : 10 frames\r\nCodec ID                                 : avc1\r\nCodec ID/Info                            : Advanced Video Coding\r\nDuration                                 : 11mn 12s\r\nBit rate                                 : 376 Kbps\r\nMaximum bit rate                         : 4 443 Kbps\r\nWidth                                    : 720 pixels\r\nHeight                                   : 404 pixels\r\nDisplay aspect ratio                     : 16:9\r\nFrame rate mode                          : Constant\r\nFrame rate                               : 23.976 (24000/1001) fps\r\nColor space                              : YUV\r\nChroma subsampling                       : 4:2:0\r\nBit depth                                : 8 bits\r\nScan type                                : Progressive\r\nBits/(Pixel*Frame)                       : 0.054\r\nStream size                              : 30.1 MiB (76%)\r\nWriting library                          : x264 core 148 r2638 7599210\r\nEncoding settings                        : cabac=1 / ref=10 / deblock=1:1:1 / analyse=0x3:0x113 / me=umh / subme=8 / psy=1 / psy_rd=0.40:0.00 / mixed_ref=1 / me_range=16 / chroma_me=1 / trellis=1 / 8x8dct=1 / cqm=0 / deadzone=21,11 / fast_pskip=1 / chroma_qp_offset=-2 / threads=12 / lookahead_threads=3 / sliced_threads=0 / nr=0 / decimate=1 / interlaced=0 / bluray_compat=0 / constrained_intra=0 / bframes=5 / b_pyramid=2 / b_adapt=2 / b_bias=0 / direct=3 / weightb=1 / open_gop=0 / weightp=2 / keyint=250 / keyint_min=25 / scenecut=40 / intra_refresh=0 / rc_lookahead=50 / rc=crf / mbtree=1 / crf=19.0 / qcomp=0.60 / qpmin=0 / qpmax=69 / qpstep=4 / ip_ratio=1.40 / aq=1:0.60\r\nEncoded date                             : UTC 2016-01-08 00:50:30\r\nTagged date                              : UTC 2016-01-08 00:50:31\r\nColor range                              : Limited\r\nMatrix coefficients                      : BT.709\r\n\r\nAudio\r\nID                                       : 2\r\nFormat                                   : AAC\r\nFormat/Info                              : Advanced Audio Codec\r\nFormat profile                           : LC\r\nCodec ID                                 : 40\r\nDuration                                 : 11mn 12s\r\nBit rate mode                            : Variable\r\nBit rate                                 : 113 Kbps\r\nMaximum bit rate                         : 152 Kbps\r\nChannel(s)                               : 2 channels\r\nChannel positions                        : Front: L R\r\nSampling rate                            : 48.0 KHz\r\nFrame rate                               : 46.875 fps (1024 spf)\r\nCompression mode                         : Lossy\r\nStream size                              : 9.09 MiB (23%)\r\nLanguage                                 : English\r\nEncoded date                             : UTC 2016-01-08 00:50:30\r\nTagged date                              : UTC 2016-01-08 00:50:31\r\n\r\nText\r\nID                                       : 3\r\nFormat                                   : Timed Text\r\nCodec ID                                 : tx3g\r\nDuration                                 : 11mn 12s\r\nBit rate mode                            : Variable\r\nBit rate                                 : 137 bps\r\nStream size                              : 11.3 KiB (0%)\r\nLanguage                                 : English\r\nForced                                   : No\r\nEncoded date                             : UTC 2016-01-08 00:50:31\r\nTagged date                              : UTC 2016-01-08 00:50:31","torrent":{"xt":"urn:btih:30bb1fa7e72bb969088326e142393ba68fda509c","amp;dn":"Adventure.Time.S07E16.Summer.Showers.HDTV.x264-W4F","amp;tr":["udp%3A%2F%2Ftracker.leechers-paradise.org%3A6969","udp%3A%2F%2Fzer0day.ch%3A1337","udp%3A%2F%2Fopen.demonii.com%3A1337","udp%3A%2F%2Ftracker.coppersurfer.tk%3A6969","udp%3A%2F%2Fexodus.desync.com%3A6969"],"infoHash":"30bb1fa7e72bb969088326e142393ba68fda509c","infoHashBuffer":{"type":"Buffer","data":[48,187,31,167,231,43,185,105,8,131,38,225,66,57,59,166,143,218,80,156]},"announce":[],"urlList":[]}}